<?xml version="1.0" encoding="utf-8"?>
<!-- Generator: Adobe Illustrator 22.1.0, SVG Export Plug-In . SVG Version: 6.00 Build 0)  -->
<svg version="1.1" id="Layer_1" xmlns="http://www.w3.org/2000/svg" xmlns:xlink="http://www.w3.org/1999/xlink" x="0px" y="0px"
	 viewBox="0 0 1000 1000" style="enable-background:new 0 0 1000 1000;" xml:space="preserve">
<style type="text/css">
	.adig-bio-0{fill:#FFD400;}
	.adig-bio-1{clip-path:url(#SVGID_2_);fill:#FFD400;}
</style>
<circle cx="500" cy="500" r="500"/>
<circle class="adig-bio-0" cx="500" cy="500" r="465.9"/>
<circle cx="500" cy="500" r="420.5"/>
<g>
	<defs>
		<circle id="SVGID_1_" cx="500" cy="500" r="425"/>
	</defs>
	<clipPath id="SVGID_2_">
		<use xlink:href="#SVGID_1_"  style="overflow:visible;"/>
	</clipPath>
	<polygon class="adig-bio-1" points="500,500 898.6,-190.3 101.4,-190.3 	"/>
	<polygon class="adig-bio-1" points="500,500 898.6,1190.3 1297.1,500 	"/>
	<polygon class="adig-bio-1" points="500,500 -297.1,500 101.4,1190.3 	"/>
</g>
<circle class="adig-bio-0" cx="500" cy="500" r="125"/>
<circle cx="500" cy="500" r="79.5"/>
<g>
	<path d="M548.6,221.7h-41.1v-27.5c0-8-0.4-13-1.3-15c-0.9-2-2.8-3-5.8-3c-3.4,0-5.5,1.2-6.4,3.6c-0.9,2.4-1.4,7.6-1.4,15.6V269
		c0,7.7,0.5,12.7,1.4,15c0.9,2.3,3,3.5,6.2,3.5c3.1,0,5.1-1.2,6-3.5c0.9-2.3,1.4-7.9,1.4-16.5v-19.9h41.1v6.2
		c0,16.4-1.2,28-3.5,34.8c-2.3,6.8-7.4,12.8-15.3,18c-7.9,5.1-17.7,7.7-29.2,7.7c-12,0-22-2.2-29.8-6.5s-13-10.4-15.5-18.1
		s-3.8-19.3-3.8-34.8v-46.2c0-11.4,0.4-19.9,1.2-25.6c0.8-5.7,3.1-11.2,7-16.5c3.9-5.3,9.2-9.4,16.1-12.5c6.9-3,14.8-4.5,23.7-4.5
		c12.1,0,22.1,2.3,30,7c7.9,4.7,13.1,10.5,15.5,17.5c2.5,7,3.7,17.9,3.7,32.6V221.7z"/>
</g>
<g>
	<path d="M285.4,619.2h-38.2v-11.7c0-5.5-0.5-9-1.5-10.4c-1-1.5-2.6-2.2-4.9-2.2c-2.5,0-4.3,1-5.6,3s-1.9,5.1-1.9,9.2
		c0,5.3,0.7,9.3,2.1,11.9c1.4,2.7,5.2,5.9,11.6,9.7c18.3,10.9,29.8,19.8,34.6,26.7c4.8,7,7.1,18.2,7.1,33.7c0,11.3-1.3,19.6-4,24.9
		c-2.6,5.3-7.7,9.8-15.3,13.4c-7.6,3.6-16.3,5.4-26.4,5.4c-11,0-20.4-2.1-28.2-6.2c-7.8-4.2-12.9-9.5-15.3-15.9
		c-2.4-6.4-3.6-15.6-3.6-27.4v-10.4h38.2v19.2c0,5.9,0.5,9.7,1.6,11.4c1.1,1.7,3,2.5,5.7,2.5s4.8-1.1,6.1-3.2c1.3-2.1,2-5.3,2-9.6
		c0-9.3-1.3-15.4-3.8-18.3c-2.6-2.9-9-7.6-19.2-14.4c-10.2-6.8-17-11.7-20.3-14.7c-3.3-3.1-6.1-7.3-8.3-12.7
		c-2.2-5.4-3.3-12.3-3.3-20.7c0-12.1,1.5-21,4.6-26.6c3.1-5.6,8.1-10,15-13.1c6.9-3.2,15.2-4.7,25-4.7c10.7,0,19.8,1.7,27.3,5.2
		c7.5,3.5,12.5,7.8,14.9,13c2.4,5.2,3.7,14.1,3.7,26.7V619.2z"/>
</g>
<g>
	<path d="M801.7,619.2h-38.2v-11.7c0-5.5-0.5-9-1.5-10.4c-1-1.5-2.6-2.2-4.9-2.2c-2.5,0-4.3,1-5.6,3c-1.3,2-1.9,5.1-1.9,9.2
		c0,5.3,0.7,9.3,2.1,11.9c1.4,2.7,5.2,5.9,11.6,9.7c18.3,10.9,29.8,19.8,34.6,26.7c4.8,7,7.1,18.2,7.1,33.7c0,11.3-1.3,19.6-4,24.9
		c-2.6,5.3-7.7,9.8-15.3,13.4c-7.6,3.6-16.3,5.4-26.4,5.4c-11,0-20.4-2.1-28.2-6.2c-7.8-4.2-12.9-9.5-15.3-15.9
		c-2.4-6.4-3.6-15.6-3.6-27.4v-10.4h38.2v19.2c0,5.9,0.5,9.7,1.6,11.4c1.1,1.7,3,2.5,5.7,2.5s4.8-1.1,6.1-3.2c1.3-2.1,2-5.3,2-9.6
		c0-9.3-1.3-15.4-3.8-18.3c-2.6-2.9-9-7.6-19.2-14.4c-10.2-6.8-17-11.7-20.3-14.7c-3.3-3.1-6.1-7.3-8.3-12.7
		c-2.2-5.4-3.3-12.3-3.3-20.7c0-12.1,1.5-21,4.6-26.6c3.1-5.6,8.1-10,15-13.1c6.9-3.2,15.2-4.7,25-4.7c10.7,0,19.8,1.7,27.3,5.2
		c7.5,3.5,12.5,7.8,14.9,13c2.4,5.2,3.7,14.1,3.7,26.7V619.2z"/>
</g>
</svg>
