<svg id="Layer_1" data-name="Layer 1" xmlns="http://www.w3.org/2000/svg" viewBox="0 0 1000 1000">
  <title>icon-mask</title>
  <path d="M500,0C223.86,0,0,223.86,0,500s223.86,500,500,500,500-223.86,500-500S776.14,0,500,0ZM965.91,500c0,2.42,0,4.84-.06,7.25,0,.71,0,1.43,0,2.14,0,1.8-.08,3.59-.14,5.39,0,.69,0,1.39-.07,2.08q-.12,3.6-.3,7.19c0,.12,0,.25,0,.37q-.18,3.41-.41,6.8c0,.71-.09,1.42-.14,2.12-.13,1.78-.27,3.57-.41,5.34-.06.67-.11,1.34-.17,2q-.3,3.55-.66,7.09c0,.21,0,.42-.07.63q-.33,3.24-.71,6.46c-.09.7-.17,1.39-.26,2.09-.21,1.77-.44,3.54-.68,5.31-.08.64-.16,1.28-.25,1.91q-.48,3.51-1,7c0,.27-.09.54-.13.81q-.48,3.1-1,6.19c-.11.68-.23,1.36-.35,2-.31,1.77-.62,3.53-.95,5.3l-.33,1.79q-.66,3.45-1.36,6.9c-.06.3-.13.6-.19.91-.42,2-.84,4-1.28,6l-.45,2q-.6,2.65-1.23,5.29l-.39,1.65q-.83,3.42-1.7,6.81c-.08.32-.17.64-.25,1q-.76,2.91-1.56,5.81c-.17.63-.35,1.27-.53,1.9-.49,1.77-1,3.55-1.51,5.31-.15.5-.29,1-.44,1.49q-1,3.36-2,6.71c-.11.33-.22.67-.32,1-.6,1.9-1.21,3.78-1.83,5.66-.19.61-.39,1.2-.59,1.8q-.9,2.7-1.83,5.37l-.44,1.29q-1.17,3.32-2.37,6.61l-.38,1q-1,2.79-2.09,5.55l-.66,1.69q-1,2.71-2.15,5.42c-.14.36-.28.72-.43,1.08-.88,2.18-1.78,4.34-2.7,6.5l-.42,1q-1.17,2.73-2.37,5.44l-.69,1.56q-1.24,2.76-2.52,5.52c-.12.27-.24.54-.37.81-1,2.14-2,4.28-3,6.4l-.45.93c-.88,1.79-1.76,3.58-2.66,5.36-.23.48-.47.95-.71,1.43-1,1.87-1.92,3.75-2.9,5.61l-.28.55c-1.11,2.11-2.23,4.2-3.37,6.29-.16.29-.32.58-.49.87q-1.44,2.65-2.93,5.28l-.73,1.28q-1.65,2.9-3.33,5.76a1.71,1.71,0,0,0-.13.23c-1.22,2.06-2.46,4.12-3.71,6.16l-.5.82c-1.06,1.73-2.14,3.47-3.23,5.19l-.72,1.13q-3.79,6-7.77,11.84l-.5.73q-1.76,2.57-3.54,5.12l-.7,1q-4.1,5.82-8.37,11.5l-.5.66q-1.9,2.54-3.84,5l-.66.85q-4.4,5.63-9,11.12l-.51.61q-2.05,2.46-4.14,4.91c-.2.23-.4.47-.61.7q-4.68,5.45-9.52,10.74l-.49.53q-2.22,2.42-4.47,4.8l-.52.56q-5,5.24-10.08,10.33l-.49.47q-2.37,2.36-4.77,4.66l-.45.44q-5.24,5-10.62,9.88l-.47.42c-1.68,1.52-3.38,3-5.08,4.51l-.37.32q-5.49,4.8-11.13,9.41l-.47.38c-1.79,1.46-3.58,2.9-5.39,4.33l-.27.22q-5.73,4.53-11.62,8.89l-.48.36Q773.88,877,771,879l-.18.13q-6,4.27-12.08,8.36l-.5.33q-3,2-5.94,3.91l-.09,0q-6.19,4-12.52,7.8l-.53.31q-3.08,1.86-6.2,3.66h0a466.43,466.43,0,0,1-466,0h0q-3.12-1.8-6.2-3.66l-.53-.31q-6.33-3.81-12.52-7.8l-.09-.06q-3-1.92-5.94-3.9l-.5-.33q-6.1-4.1-12.08-8.36L229,879c-1.9-1.36-3.78-2.73-5.66-4.12l-.48-.36q-5.88-4.35-11.62-8.89l-.28-.22q-2.7-2.14-5.38-4.33l-.47-.39q-5.64-4.6-11.13-9.4l-.37-.32c-1.7-1.49-3.4-3-5.08-4.51L188,846q-5.39-4.86-10.62-9.88l-.45-.44q-2.4-2.31-4.77-4.66l-.49-.47q-5.12-5.08-10.08-10.33c-.17-.19-.35-.37-.53-.56q-2.24-2.38-4.46-4.8l-.49-.53q-4.84-5.29-9.52-10.74c-.21-.23-.41-.47-.61-.71q-2.08-2.43-4.15-4.91c-.16-.2-.33-.39-.5-.59q-4.56-5.5-8.95-11.13l-.66-.85q-1.94-2.49-3.84-5l-.5-.66q-4.28-5.68-8.37-11.5l-.7-1q-1.78-2.55-3.54-5.12l-.49-.73q-4-5.85-7.78-11.84l-.72-1.13q-1.64-2.6-3.24-5.2l-.49-.8q-1.87-3.08-3.71-6.18a2.53,2.53,0,0,0-.13-.22q-1.68-2.87-3.33-5.76L94.17,729q-1.48-2.62-2.94-5.28l-.48-.87c-1.13-2.09-2.26-4.18-3.37-6.29L87.1,716c-1-1.86-1.94-3.74-2.9-5.62L83.49,709q-1.35-2.68-2.66-5.38l-.45-.92c-1-2.12-2-4.26-3-6.4-.13-.27-.25-.54-.37-.81-.85-1.83-1.69-3.68-2.52-5.53l-.69-1.55q-1.2-2.71-2.37-5.46L71,682q-1.38-3.24-2.7-6.51c-.15-.36-.29-.71-.43-1.07q-1.09-2.7-2.16-5.43c-.21-.56-.43-1.12-.65-1.69q-1.07-2.76-2.09-5.54c-.13-.34-.25-.67-.38-1q-1.2-3.3-2.37-6.61l-.44-1.29q-.93-2.67-1.83-5.37c-.2-.6-.4-1.19-.59-1.79q-.93-2.83-1.83-5.68c-.11-.33-.21-.66-.32-1q-1-3.35-2-6.71c-.15-.49-.29-1-.43-1.48-.52-1.77-1-3.55-1.52-5.32-.18-.64-.36-1.27-.53-1.9-.53-1.93-1.05-3.88-1.56-5.82-.08-.32-.17-.64-.25-1q-.87-3.39-1.7-6.81l-.39-1.64c-.42-1.77-.83-3.53-1.23-5.3l-.45-2q-.65-3-1.28-6c-.06-.31-.13-.62-.19-.93q-.7-3.44-1.36-6.89l-.33-1.79c-.33-1.76-.64-3.53-1-5.3-.12-.68-.24-1.36-.35-2q-.52-3.09-1-6.19c0-.27-.08-.54-.13-.81q-.52-3.48-1-7c-.09-.63-.17-1.27-.25-1.91-.24-1.77-.47-3.54-.68-5.31-.09-.7-.17-1.39-.26-2.09-.25-2.15-.49-4.31-.71-6.46,0-.21,0-.42-.07-.63q-.36-3.54-.66-7.09c-.06-.67-.11-1.34-.17-2-.14-1.77-.28-3.56-.41-5.34-.05-.7-.1-1.41-.14-2.12q-.23-3.39-.41-6.8c0-.12,0-.25,0-.37q-.18-3.59-.3-7.19c0-.69,0-1.39-.07-2.08-.06-1.8-.1-3.59-.14-5.39,0-.71,0-1.43,0-2.14,0-2.41-.06-4.83-.06-7.25h0c0-172.44,93.68-323,232.92-403.55h0q6.3-3.65,12.73-7.1l.57-.31c2-1.08,4.06-2.15,6.1-3.21l.24-.12q6.45-3.33,13-6.47l.61-.29q3-1.44,6.07-2.83l.51-.23q6.57-3,13.26-5.8l.7-.29q3-1.26,6-2.46l.78-.32q6.69-2.65,13.46-5.12l.81-.29q3-1.06,6-2.1l1.07-.37q6.76-2.31,13.62-4.43l.91-.28q2.94-.9,5.89-1.76l1.34-.39c2.16-.62,4.32-1.23,6.5-1.82l.25-.08q3.49-.95,7-1.84l1-.26c1.94-.49,3.88-1,5.83-1.43l1.6-.38q3-.7,6-1.37l.89-.2q3.5-.76,7-1.48l1.07-.21q2.91-.59,5.84-1.13l1.81-.34c1.88-.34,3.77-.68,5.66-1l1.35-.23c2.34-.39,4.68-.77,7-1.12l1.05-.16q3-.43,5.92-.84l2-.27c1.8-.24,3.6-.46,5.41-.68l1.72-.21c2.34-.27,4.69-.53,7-.76l1-.09q3-.3,6.08-.57l2.12-.17,5.28-.4,2-.13c2.36-.16,4.73-.3,7.09-.42l.64,0,6.48-.27,2.17-.07,5.24-.13,2.14,0q3.57-.06,7.16-.06t7.16.06l2.14,0,5.24.13,2.17.07,6.48.27.64,0c2.36.12,4.73.26,7.09.42l2,.13,5.28.4,2.12.17q3,.27,6.08.57l1,.09c2.35.23,4.7.49,7,.76l1.72.21c1.81.22,3.61.44,5.41.68l2,.27q3,.4,5.91.84l1.07.16c2.34.35,4.68.73,7,1.12l1.35.23c1.89.32,3.78.66,5.66,1l1.81.34q2.93.54,5.84,1.13l1.07.21q3.51.72,7,1.48l.89.2q3,.66,6,1.37l1.59.38c2,.47,3.9.94,5.84,1.43l1,.26c2.35.6,4.69,1.21,7,1.85l.25.06q3.25.9,6.5,1.83l1.34.39q3,.86,5.89,1.76l.91.28q6.85,2.11,13.62,4.43l1.07.37q3,1,6,2.1l.8.29q6.78,2.46,13.46,5.12l.8.32c2,.8,4,1.62,6,2.45l.71.3q6.69,2.79,13.26,5.8l.51.23c2,.93,4.06,1.88,6.07,2.83l.61.29q6.57,3.14,13,6.47l.26.13q3.06,1.57,6.09,3.2l.57.31q6.42,3.45,12.73,7.1h0C872.23,177,965.91,327.56,965.91,500Z"/>
  <polygon points="732.99 903.55 732.99 903.55 732.99 903.55 732.99 903.55"/>
  <path d="M965.85,507.25c0,.71,0,1.43,0,2.14C965.82,508.68,965.84,508,965.85,507.25Z"/>
  <polygon points="965.91 500 965.91 500 965.91 500 965.91 500"/>
  <path d="M965.67,514.78c0,.69,0,1.39-.07,2.08C965.63,516.17,965.65,515.47,965.67,514.78Z"/>
  <path d="M771,879l-.18.13Z"/>
  <path d="M828.31,830.58l-.49.47Z"/>
  <path d="M823.05,835.71l-.45.44Z"/>
  <path d="M812,846l-.47.42Z"/>
  <path d="M843.87,814.36l-.49.53Z"/>
  <path d="M854,802.92c-.2.23-.4.47-.61.7C853.6,803.39,853.8,803.15,854,802.92Z"/>
  <path d="M806.43,851l-.37.32Z"/>
  <path d="M838.91,819.69l-.52.56Z"/>
  <path d="M739.72,899.58l-.53.31Z"/>
  <path d="M794.93,860.69l-.47.38Z"/>
  <path d="M758.77,887.49l-.5.33Z"/>
  <path d="M752.33,891.73l-.09,0Z"/>
  <path d="M965.3,524.05c0,.12,0,.25,0,.37C965.28,524.3,965.29,524.17,965.3,524.05Z"/>
  <path d="M777.18,874.51l-.48.36Z"/>
  <path d="M789.07,865.4l-.27.22Z"/>
  <path d="M944.82,639c-.11.33-.22.67-.32,1C944.6,639.68,944.71,639.34,944.82,639Z"/>
  <path d="M916.51,709c-.23.48-.47.95-.71,1.43C916,709.93,916.28,709.46,916.51,709Z"/>
  <path d="M912.9,716l-.28.55Z"/>
  <path d="M909.25,722.86c-.16.29-.32.58-.49.87C908.93,723.44,909.09,723.15,909.25,722.86Z"/>
  <path d="M919.62,702.69l-.45.93Z"/>
  <path d="M905.83,729l-.73,1.28Z"/>
  <path d="M929,682l-.42,1Z"/>
  <path d="M926.24,688.4l-.69,1.56Z"/>
  <path d="M923,695.48c-.12.27-.24.54-.37.81C922.79,696,922.91,695.75,923,695.48Z"/>
  <path d="M885.71,761.42l-.5.73Z"/>
  <path d="M881.67,767.27l-.7,1Z"/>
  <path d="M872.6,779.75l-.5.66Z"/>
  <path d="M868.26,785.43l-.66.85Z"/>
  <path d="M858.65,797.4l-.51.61Z"/>
  <path d="M932.16,674.39c-.14.36-.28.72-.43,1.08C931.88,675.11,932,674.75,932.16,674.39Z"/>
  <path d="M897.93,742.44l-.5.82Z"/>
  <path d="M901.77,736.05a1.71,1.71,0,0,0-.13.23A1.71,1.71,0,0,1,901.77,736.05Z"/>
  <path d="M894.2,748.45l-.72,1.13Z"/>
  <path d="M963.49,547.78c0,.21,0,.42-.07.63C963.44,548.2,963.47,548,963.49,547.78Z"/>
  <path d="M959.37,578.17c-.11.68-.23,1.36-.35,2C959.14,579.53,959.26,578.85,959.37,578.17Z"/>
  <path d="M956.38,594.2c-.06.3-.13.6-.19.91C956.25,594.8,956.32,594.5,956.38,594.2Z"/>
  <path d="M961.77,562.27c-.08.64-.16,1.28-.25,1.91C961.61,563.55,961.69,562.91,961.77,562.27Z"/>
  <path d="M958.07,585.51l-.33,1.79Z"/>
  <path d="M960.51,571.17c0,.27-.09.54-.13.81C960.42,571.71,960.46,571.44,960.51,571.17Z"/>
  <path d="M962.71,554.87c-.09.7-.17,1.39-.26,2.09C962.54,556.26,962.62,555.57,962.71,554.87Z"/>
  <path d="M964.32,538.68c-.06.67-.11,1.34-.17,2C964.21,540,964.26,539.35,964.32,538.68Z"/>
  <path d="M935,667.28l-.66,1.69Z"/>
  <path d="M964.87,531.22c0,.71-.09,1.42-.14,2.12C964.78,532.64,964.83,531.93,964.87,531.22Z"/>
  <path d="M940.25,652.84l-.44,1.29Z"/>
  <path d="M942.67,645.67c-.19.6-.39,1.2-.59,1.8C942.28,646.87,942.48,646.28,942.67,645.67Z"/>
  <path d="M937.44,660.74l-.38,1Z"/>
  <path d="M947.29,630.81c-.15.5-.29,1-.44,1.49C947,631.81,947.14,631.31,947.29,630.81Z"/>
  <path d="M953.23,608.36l-.39,1.65Z"/>
  <path d="M954.91,601.09l-.45,2Z"/>
  <path d="M949.33,623.6c-.17.63-.35,1.27-.53,1.9C949,624.87,949.16,624.23,949.33,623.6Z"/>
  <path d="M951.14,616.82c-.08.32-.17.64-.25,1C951,617.46,951.06,617.14,951.14,616.82Z"/>
  <path d="M413.7,42.08l1.81-.34Z"/>
  <path d="M406.79,43.42l1.07-.21Z"/>
  <path d="M421.17,40.74l1.35-.23Z"/>
  <path d="M398.89,45.1l.89-.2Z"/>
  <path d="M306.36,76.12l.51-.23Z"/>
  <path d="M391.29,46.85l1.6-.38Z"/>
  <path d="M299.68,79.24l.61-.29Z"/>
  <path d="M320.13,70.09l.7-.29Z"/>
  <path d="M286.41,85.83l.24-.12Z"/>
  <polygon points="267.01 96.45 267.01 96.45 267.01 96.45 267.01 96.45"/>
  <path d="M279.74,89.35l.57-.31Z"/>
  <path d="M326.85,67.34l.78-.32Z"/>
  <path d="M369.34,52.67l1.34-.39Z"/>
  <path d="M377.18,50.46l.25-.08Z"/>
  <path d="M384.45,48.54l1-.26Z"/>
  <path d="M362.54,54.71l.91-.28Z"/>
  <path d="M347.85,59.51l1.07-.37Z"/>
  <path d="M341.09,61.9l.81-.29Z"/>
  <path d="M490.7,34.19l2.14,0Z"/>
  <path d="M614.54,48.28l1,.26Z"/>
  <path d="M622.57,50.39l.25.06Z"/>
  <path d="M629.32,52.28l1.34.39Z"/>
  <path d="M636.55,54.43l.91.28Z"/>
  <path d="M592.14,43.21l1.07.21Z"/>
  <path d="M607.11,46.47l1.59.38Z"/>
  <path d="M651.08,59.14l1.07.37Z"/>
  <path d="M584.49,41.74l1.81.34Z"/>
  <path d="M600.22,44.9l.89.2Z"/>
  <path d="M713.34,85.71l.26.13Z"/>
  <path d="M719.69,89l.57.31Z"/>
  <path d="M658.1,61.61l.8.29Z"/>
  <path d="M699.71,79l.61.29Z"/>
  <polygon points="732.99 96.45 732.99 96.45 732.99 96.45 732.99 96.45"/>
  <path d="M672.36,67l.8.32Z"/>
  <path d="M679.16,69.79l.71.3Z"/>
  <path d="M693.13,75.89l.51.23Z"/>
  <path d="M554.36,37.23l1.72.21Z"/>
  <path d="M459.72,35.81l2.12-.17Z"/>
  <path d="M577.48,40.51l1.35.23Z"/>
  <path d="M467.12,35.24l2-.13Z"/>
  <path d="M507.16,34.15l2.14,0Z"/>
  <path d="M483.29,34.39l2.17-.07Z"/>
  <path d="M436.52,38.39l2-.27Z"/>
  <path d="M452.68,36.47l1-.09Z"/>
  <path d="M443.92,37.44l1.72-.21Z"/>
  <path d="M476.17,34.69l.64,0Z"/>
  <path d="M429.55,39.39l1.05-.16Z"/>
  <path d="M546.36,36.38l1,.09Z"/>
  <path d="M561.49,38.12l2,.27Z"/>
  <path d="M569.39,39.23l1.07.16Z"/>
  <path d="M514.54,34.32l2.17.07Z"/>
  <path d="M523.19,34.66l.64,0Z"/>
  <path d="M538.16,35.64l2.12.17Z"/>
  <path d="M530.92,35.11l2,.13Z"/>
  <path d="M211.2,865.62l-.28-.22Z"/>
  <path d="M193.94,851.28l-.37-.32Z"/>
  <polygon points="267.01 903.55 267.01 903.55 267.01 903.55 267.01 903.55"/>
  <path d="M132.4,786.28l-.66-.85Z"/>
  <path d="M127.9,780.41l-.5-.66Z"/>
  <path d="M260.81,899.89l-.53-.31Z"/>
  <path d="M188.49,846.45,188,846Z"/>
  <path d="M241.73,887.82l-.5-.33Z"/>
  <path d="M205.54,861.07l-.47-.39Z"/>
  <path d="M141.85,798c-.16-.2-.33-.39-.5-.59C141.52,797.61,141.69,797.8,141.85,798Z"/>
  <path d="M161.61,820.25c-.17-.19-.35-.37-.53-.56C161.26,819.88,161.44,820.06,161.61,820.25Z"/>
  <path d="M177.4,836.15l-.45-.44Z"/>
  <path d="M229.15,879.13,229,879Z"/>
  <path d="M172.18,831.05l-.49-.47Z"/>
  <path d="M146.61,803.62c-.21-.23-.41-.47-.61-.71C146.2,803.15,146.4,803.39,146.61,803.62Z"/>
  <path d="M223.3,874.87l-.48-.36Z"/>
  <path d="M247.76,891.78l-.09-.06Z"/>
  <path d="M156.62,814.89l-.49-.53Z"/>
  <path d="M106.52,749.58l-.72-1.13Z"/>
  <path d="M38.48,564.18c-.09-.63-.17-1.27-.25-1.91C38.31,562.91,38.39,563.55,38.48,564.18Z"/>
  <path d="M53.15,632.3c-.15-.49-.29-1-.43-1.48C52.86,631.31,53,631.81,53.15,632.3Z"/>
  <path d="M43.81,595.12c-.06-.31-.13-.62-.19-.93C43.68,594.5,43.75,594.81,43.81,595.12Z"/>
  <path d="M39.62,572c0-.27-.08-.54-.13-.81C39.54,571.44,39.58,571.71,39.62,572Z"/>
  <path d="M41,580.21c-.12-.68-.24-1.36-.35-2C40.74,578.85,40.86,579.53,41,580.21Z"/>
  <path d="M119,768.25l-.7-1Z"/>
  <path d="M51.2,625.5c-.18-.64-.36-1.27-.53-1.9C50.84,624.23,51,624.86,51.2,625.5Z"/>
  <path d="M47.16,610l-.39-1.64Z"/>
  <path d="M45.54,603.07l-.45-2Z"/>
  <path d="M42.26,587.3l-.33-1.79Z"/>
  <path d="M34.4,516.86c0-.69,0-1.39-.07-2.08C34.35,515.47,34.37,516.17,34.4,516.86Z"/>
  <path d="M34.19,509.39c0-.71,0-1.43,0-2.14C34.16,508,34.18,508.68,34.19,509.39Z"/>
  <path d="M34.72,524.42c0-.12,0-.25,0-.37C34.71,524.17,34.72,524.3,34.72,524.42Z"/>
  <path d="M37.55,557c-.09-.7-.17-1.39-.26-2.09C37.38,555.57,37.46,556.26,37.55,557Z"/>
  <polygon points="34.09 500 34.09 500 34.09 500 34.09 500"/>
  <path d="M36.58,548.41c0-.21,0-.42-.07-.63C36.53,548,36.56,548.2,36.58,548.41Z"/>
  <path d="M35.27,533.34c-.05-.7-.1-1.41-.14-2.12C35.17,531.93,35.22,532.64,35.27,533.34Z"/>
  <path d="M35.85,540.69c-.06-.67-.11-1.34-.17-2C35.74,539.35,35.79,540,35.85,540.69Z"/>
  <path d="M49.11,617.78c-.08-.32-.17-.64-.25-1C48.94,617.14,49,617.46,49.11,617.78Z"/>
  <path d="M87.38,716.57c-.09-.18-.19-.36-.28-.55Z"/>
  <path d="M91.23,723.73l-.48-.87Z"/>
  <path d="M84.2,710.4,83.49,709Z"/>
  <path d="M80.83,703.61l-.45-.92Z"/>
  <path d="M94.9,730.29,94.17,729Z"/>
  <path d="M98.36,736.27a2.53,2.53,0,0,0-.13-.22A2.53,2.53,0,0,1,98.36,736.27Z"/>
  <path d="M114.79,762.15l-.49-.73Z"/>
  <path d="M102.56,743.25l-.49-.8Z"/>
  <path d="M74.45,690l-.69-1.55Z"/>
  <path d="M60.19,654.13l-.44-1.29Z"/>
  <path d="M77.34,696.29c-.13-.27-.25-.54-.37-.81C77.09,695.75,77.21,696,77.34,696.29Z"/>
  <path d="M57.92,647.47c-.2-.6-.4-1.19-.59-1.79C57.52,646.28,57.72,646.87,57.92,647.47Z"/>
  <path d="M65.68,669c-.21-.56-.43-1.12-.65-1.69C65.25,667.85,65.47,668.41,65.68,669Z"/>
  <path d="M62.94,661.74c-.13-.34-.25-.67-.38-1C62.69,661.07,62.81,661.4,62.94,661.74Z"/>
  <path d="M55.5,640c-.11-.33-.21-.66-.32-1C55.29,639.34,55.39,639.67,55.5,640Z"/>
  <path d="M71.39,682.94,71,682Z"/>
  <path d="M68.27,675.47c-.15-.36-.29-.71-.43-1.07C68,674.76,68.12,675.11,68.27,675.47Z"/>
  <path d="M437.49,391.73,289.74,135.82C164.09,208.52,79.55,344.39,79.55,500H375A125,125,0,0,1,437.49,391.73Z"/>
  <path d="M920.45,500c0-155.61-84.54-291.48-210.19-364.18L562.51,391.73A125,125,0,0,1,625,500Z"/>
  <path d="M562.51,608.27a125.15,125.15,0,0,1-125,0L289.74,864.18a421,421,0,0,0,420.52,0Z"/>
  <path d="M548.58,221.7v-15q0-22.12-3.71-32.62t-15.52-17.5q-11.82-7-30-7a58.18,58.18,0,0,0-23.69,4.54,38.77,38.77,0,0,0-16.11,12.45,35.9,35.9,0,0,0-7,16.45q-1.17,8.55-1.17,25.64v46.19q0,23.24,3.8,34.81t15.53,18.12q11.72,6.54,29.79,6.54,17.37,0,29.25-7.72t15.33-18q3.46-10.28,3.46-34.82v-6.16H507.47v19.88q0,13-1.42,16.54t-6,3.52q-4.79,0-6.15-3.51t-1.37-15V195.53q0-12,1.37-15.62t6.44-3.62c3,0,4.93,1,5.81,3s1.32,7,1.32,14.95V221.7Z"/>
  <path d="M281.71,655.37q-7.12-10.44-34.58-26.74Q237.56,623,235.52,619T233.38,607q0-6.15,1.9-9.19a6.21,6.21,0,0,1,5.61-3q3.42,0,4.89,2.25t1.46,10.45v11.72h38.19V613q0-18.86-3.67-26.71t-14.94-13q-11.28-5.18-27.29-5.17-14.65,0-25,4.73t-15,13.14q-4.65,8.4-4.64,26.56,0,12.6,3.27,20.7a34.46,34.46,0,0,0,8.25,12.7q5,4.59,20.31,14.74T246,675q3.81,4.31,3.81,18.26,0,6.35-2,9.57a6.69,6.69,0,0,1-6.1,3.22c-2.74,0-4.64-.84-5.72-2.53s-1.61-5.51-1.61-11.43V672.85H196.17V683.2q0,17.77,3.61,27.44t15.28,15.92q11.67,6.26,28.18,6.25,15,0,26.37-5.42T284.89,714q4-8,3.95-24.9Q288.84,665.83,281.71,655.37Z"/>
  <path d="M763.39,628.63Q753.82,623,751.77,619T749.63,607q0-6.15,1.91-9.18a6.2,6.2,0,0,1,5.61-3q3.42,0,4.89,2.25t1.46,10.45v11.72h38.18V613q0-18.86-3.66-26.71t-14.94-13q-11.28-5.18-27.29-5.17-14.65,0-25,4.73t-15,13.14q-4.63,8.4-4.63,26.56,0,12.6,3.27,20.7a34.46,34.46,0,0,0,8.25,12.7q5,4.59,20.31,14.74T762.23,675q3.81,4.31,3.81,18.26,0,6.35-2,9.57a6.7,6.7,0,0,1-6.11,3.22c-2.73,0-4.64-.84-5.71-2.53s-1.61-5.5-1.61-11.43V672.85H712.43V683.2q0,17.77,3.61,27.44t15.28,15.92q11.67,6.26,28.18,6.25,15,0,26.36-5.42T801.15,714q3.95-8,4-24.9,0-23.23-7.13-33.69T763.39,628.63Z"/>
  <circle cx="500" cy="500" r="79.55"/>
</svg>
